<?xml version="1.0" standalone="no"?>
<!DOCTYPE svg PUBLIC "-//W3C//DTD SVG 20010904//EN"
 "http://www.w3.org/TR/2001/REC-SVG-20010904/DTD/svg10.dtd">
<svg version="1.0" xmlns="http://www.w3.org/2000/svg"
 width="700.000000pt" height="700.000000pt" viewBox="0 0 700.000000 700.000000"
 preserveAspectRatio="xMidYMid meet">
<metadata>
Created by potrace 1.11, written by Peter Selinger 2001-2013
</metadata>
<g transform="translate(0.000000,700.000000) scale(0.100000,-0.100000)"
fill="#000000" stroke="none">
<path d="M1727 5094 c-1 -1 -51 -4 -112 -8 -153 -9 -215 -18 -345 -54 -295
-81 -550 -230 -766 -447 -270 -271 -430 -594 -487 -984 -13 -86 -16 -366 -4
-431 2 -14 7 -50 11 -80 4 -30 11 -68 16 -85 5 -16 11 -43 14 -58 22 -125 165
-472 222 -538 8 -8 14 -20 14 -25 0 -16 146 -204 212 -272 220 -229 442 -357
733 -424 70 -16 129 -21 265 -22 96 -1 195 1 220 5 25 4 84 10 132 14 49 3 96
8 105 9 25 5 89 14 143 22 25 3 90 14 145 25 55 11 111 22 125 25 14 3 88 20
165 39 251 61 310 74 454 95 186 27 296 34 526 34 289 0 513 -22 750 -75 50
-11 101 -22 115 -25 14 -3 39 -9 56 -15 29 -9 40 -12 97 -24 12 -2 63 -14 112
-25 50 -10 117 -24 150 -30 33 -5 71 -12 85 -15 14 -3 43 -8 65 -11 22 -3 54
-7 70 -9 27 -4 75 -9 176 -20 260 -29 471 -25 619 9 262 62 476 186 681 398
53 54 110 118 125 141 16 23 31 44 34 47 21 18 100 154 150 255 53 106 131
315 144 385 2 14 10 49 16 77 27 121 37 244 34 408 -2 94 -6 181 -8 195 -3 14
-8 45 -11 70 -20 137 -93 358 -167 500 -81 158 -202 325 -306 424 -90 85 -129
121 -158 141 -15 11 -39 29 -53 41 -77 61 -251 155 -379 205 -138 53 -313 93
-462 106 -53 4 -3718 11 -3723 7z"/>
</g>
</svg>
